<?xml version="1.0" encoding="UTF-8" standalone="no"?>
<svg xmlns:dc="http://purl.org/dc/elements/1.1/" xmlns:cc="http://creativecommons.org/ns#" xmlns:rdf="http://www.w3.org/1999/02/22-rdf-syntax-ns#" xmlns:svg="http://www.w3.org/2000/svg" xmlns="http://www.w3.org/2000/svg" width="41" height="51" version="1.1" style="fill:#59cfe6" id="svg2148">
  <title id="title6482">Outreachy bot</title>
  <metadata id="metadata2145">
    <rdf:RDF>
      <cc:Work rdf:about="">
        <dc:format>image/svg+xml</dc:format>
        <dc:type rdf:resource="http://purl.org/dc/dcmitype/StillImage"/>
        <dc:title>Outreachy bot</dc:title>
        <cc:license rdf:resource="http://creativecommons.org/licenses/by-sa/4.0/"/>
        <dc:contributor>
          <cc:Agent>
            <dc:title>CC-BY-SA - artists Liansu Yu, Christy Eller, Meg Ford, Tamara Atanasoska, Barbara Muraus, Sage Sharp</dc:title>
          </cc:Agent>
        </dc:contributor>
      </cc:Work>
      <cc:License rdf:about="http://creativecommons.org/licenses/by-sa/4.0/">
        <cc:permits rdf:resource="http://creativecommons.org/ns#Reproduction"/>
        <cc:permits rdf:resource="http://creativecommons.org/ns#Distribution"/>
        <cc:requires rdf:resource="http://creativecommons.org/ns#Notice"/>
        <cc:requires rdf:resource="http://creativecommons.org/ns#Attribution"/>
        <cc:permits rdf:resource="http://creativecommons.org/ns#DerivativeWorks"/>
        <cc:requires rdf:resource="http://creativecommons.org/ns#ShareAlike"/>
      </cc:License>
    </rdf:RDF>
  </metadata>
  <path id="path5423" d="m 31.78404,45.57368 -6.57538,0.0485 c -0.67757,0.005 -1.21925,0.52172 -1.21455,1.15857 l 0.0157,2.12493 c 0.005,0.63684 0.67515,1.79507 1.34946,1.7286 l 6.45745,-0.63658 c 0.67431,-0.0665 1.21925,-0.52172 1.21455,-1.15857 l -0.0157,-2.12493 c -0.005,-0.63685 -0.55396,-1.14552 -1.23152,-1.14052 z" style="stroke-width:0.3585318"/>
  <path id="path5427" d="m 18.11949,45.57368 -6.57539,0.0485 c -0.67756,0.005 -1.21925,0.52172 -1.21455,1.15856 l 0.0157,2.12493 c 0.005,0.63684 0.53313,1.76881 1.2078,1.70603 l 6.59912,-0.61402 c 0.67466,-0.0628 1.21924,-0.52171 1.21454,-1.15856 l -0.0157,-2.12492 c -0.005,-0.63685 -0.55396,-1.14552 -1.23152,-1.14052 z" style="stroke-width:0.37764919"/>
  <path id="path5580" d="m 36.17495,30.96298 4.325,-4.87798 c 0.45796,-0.51649 0.31243,-1.39264 -0.10644,-1.76364 l -1.39483,-1.23551 c -0.51651,-0.45774 -1.30655,-0.4101 -1.76426,0.10638 l -4.32523,4.87821 c -0.37094,0.4184 -0.41007,1.30591 0.10643,1.76343 l 1.39483,1.23551 c 0.41887,0.371 1.39334,0.31224 1.7645,-0.1064 z" style="stroke-width:0.47854969"/>
  <path id="path5582" style="stroke-width:0.72906089" d="m 8.063916,27.02006 24.543829,-1.02365 c 1.569393,-0.0656 2.907238,1.4501 2.960311,2.72141 l 0.469674,11.25029 c 0.06558,1.56856 -1.153784,2.89343 -2.72317,2.95887 L 8.770694,43.95063 C 7.498602,44.00373 5.876148,42.79734 5.810659,41.22879 L 5.341001,29.97852 c -0.05316,-1.27135 1.450778,-2.90541 2.722915,-2.95846 z"/>
  <path id="path5588" d="M 10.231897,5.20971 C 9.439419,5.3433 8.746223,5.96515 8.561219,6.79078 l -1.060746,4.71305 c -1.347428,1.55673 -2.089335,3.38733 -2.009831,5.29132 0.223467,5.3529 6.868218,9.41026 14.826211,9.07835 7.958161,-0.33191 14.226573,-4.92782 14.003044,-10.28076 -0.07936,-1.90152 -0.974616,-3.66739 -2.443813,-5.10555 L 30.426117,5.87886 c -0.290759,-0.92811 -1.225315,-1.5171 -2.155291,-1.42148 -0.131985,0.0277 -0.266454,0.0804 -0.399215,0.12138 -1.755496,0.71547 -3.983173,0.8918 -5.471685,1.97903 -0.936593,-0.0874 -1.905559,-0.11485 -2.892552,-0.0739 -0.990569,0.0412 -1.961991,0.14755 -2.891196,0.31512 0,0 -0.01375,0 -0.01375,0 -1.620066,-0.93903 -3.722144,-1.09427 -5.602633,-1.51714 -0.134467,-0.0295 -0.274167,-0.0868 -0.407756,-0.0884 -0.1127,0.004 -0.233939,-0.008 -0.343719,0.0143 h -0.0138 z" style="stroke-width:0.72906089"/>
  <path id="path5590" d="m 16.556932,13.44318 c 0.04906,-0.003 0.10168,0.008 0.150178,0.008 l 3.482167,-0.14521 c 0.793662,-0.0332 1.445914,0.56662 1.479063,1.35989 l 0.144663,3.4656 c 0.03308,0.79331 -0.565672,1.47516 -1.359339,1.50824 l -3.482167,0.14521 c -0.793966,0.0331 -1.462202,-0.59585 -1.495239,-1.38916 l -0.144661,-3.46558 c -0.02895,-0.69426 0.428091,-1.3061 1.076596,-1.46652 0.04632,-0.003 0.09975,-0.0185 0.148796,-0.0207 z" style="fill:#ffffff;stroke-width:0.72906089"/>
  <path id="path5592" d="m 25.804056,13.05756 c 0.04766,-0.003 0.08404,0.0108 0.131713,0.008 L 29.329706,12.924 c 0.773824,-0.0322 1.42456,0.56754 1.457654,1.36081 l 0.144668,3.46561 c 0.03308,0.79331 -0.564106,1.47505 -1.337935,1.50732 l -3.393932,0.14155 c -0.773579,0.0322 -1.440352,-0.59677 -1.473472,-1.39007 l -0.144666,-3.46561 c -0.02895,-0.69425 0.445011,-1.30678 1.076932,-1.46651 0.04549,-0.003 0.08294,-0.0179 0.130842,-0.0194 z" style="fill:#ffffff;stroke-width:0.72906089"/>
  <path d="m 20.8978,1.778081 c 0.0321,0.768186 -0.59097,1.418004 -1.39159,1.451396 -0.80063,0.03339 -1.47566,-0.562289 -1.50773,-1.330476 -0.0321,-0.768186 0.59097,-1.4180045 1.39159,-1.4513959 0.73147,-0.030507 1.37016,0.4666266 1.4895,1.1593249" id="path5596" style="stroke-width:1.56911862"/>
  <path d="m 19.09463,2.791673 0.78523,-0.03275 0.1825,4.371504 -0.78523,0.03275 z" id="path5598" style="stroke-width:1.56911862"/>
  <path d="m 0.4834248,27.89391 4.8636302,4.34168 c 0.514974,0.45972 1.392102,0.31765 1.764896,-0.0996 l 1.24147,-1.38938 c 0.45995,-0.51449 0.415335,-1.30432 -0.09963,-1.7638 L 3.389927,24.6409 C 2.972757,24.26853 2.084981,24.226 1.625251,24.74048 l -1.2414703,1.38938 c -0.372794,0.41724 -0.3177645,1.39146 0.0996441,1.76405 z" id="path5602" style="stroke-width:0.47854969"/>
</svg>