<svg width="227" height="67" viewBox="0 0 227 67" fill="none" xmlns="http://www.w3.org/2000/svg">
<path d="M226.5 34C226.5 38.3067 223.495 42.5166 217.797 46.4331C212.116 50.3386 203.862 53.8758 193.617 56.8544C173.134 62.8097 144.809 66.5 113.5 66.5C82.1913 66.5 53.8655 62.8097 33.383 56.8544C23.1384 53.8758 14.8842 50.3386 9.20263 46.4331C3.50526 42.5166 0.5 38.3067 0.5 34C0.5 29.6933 3.50526 25.4834 9.20263 21.5669C14.8842 17.6614 23.1384 14.1242 33.383 11.1456C53.8655 5.19031 82.1913 1.5 113.5 1.5C144.809 1.5 173.134 5.19031 193.617 11.1456C203.862 14.1242 212.116 17.6614 217.797 21.5669C223.495 25.4834 226.5 29.6933 226.5 34Z" fill="#DEDEDE" stroke="black"/>
<path d="M69.7832 36.5059V38H64.2285V36.5059H66.2148V27.7168H64.2285V26.2227H69.7832V27.7168H67.7969V36.5059H69.7832ZM74.6523 29.2109V30.5996C74.8398 30.3652 75.0801 30.1309 75.373 29.8965C75.666 29.6504 75.9941 29.4453 76.3574 29.2812C76.7324 29.1172 77.1191 29.0352 77.5176 29.0352C78.1152 29.0352 78.6602 29.1699 79.1523 29.4395C79.6445 29.6973 80.0371 30.0957 80.3301 30.6348C80.623 31.1621 80.7695 31.8301 80.7695 32.6387V38H79.3281L79.3105 32.7793C79.3105 32.0176 79.1406 31.4375 78.8008 31.0391C78.4727 30.6406 77.9629 30.4414 77.2715 30.4414C76.8027 30.4414 76.334 30.6172 75.8652 30.9688C75.4082 31.3086 75.0039 31.707 74.6523 32.1641V38H73.2109V29.2109H74.6523ZM86.1133 29.0352C86.6289 29.0352 87.1094 29.1113 87.5547 29.2637C88 29.4043 88.3223 29.5508 88.5215 29.7031V31.25C88.2754 31.0625 87.9414 30.8809 87.5195 30.7051C87.0977 30.5293 86.6641 30.4414 86.2188 30.4414C85.668 30.4414 85.252 30.5703 84.9707 30.8281C84.7012 31.0859 84.5664 31.3555 84.5664 31.6367C84.5664 31.8594 84.6426 32.0879 84.7949 32.3223C84.959 32.5449 85.2402 32.7266 85.6387 32.8672L87.1152 33.3945C87.6895 33.5938 88.1172 33.8809 88.3984 34.2559C88.6797 34.6309 88.8203 35.0703 88.8203 35.5742C88.8203 36.0664 88.6797 36.5176 88.3984 36.9277C88.1289 37.3379 87.748 37.666 87.2559 37.9121C86.7754 38.1465 86.2188 38.2637 85.5859 38.2637C85.2461 38.2637 84.8887 38.2168 84.5137 38.123C84.1504 38.041 83.8223 37.9414 83.5293 37.8242C83.2363 37.6953 83.0195 37.584 82.8789 37.4902V35.9434C83.043 36.0605 83.2715 36.1953 83.5645 36.3477C83.8691 36.4883 84.1914 36.6113 84.5312 36.7168C84.8711 36.8105 85.1875 36.8574 85.4805 36.8574C86.0312 36.8574 86.4648 36.7344 86.7812 36.4883C87.1094 36.2422 87.2734 35.9375 87.2734 35.5742C87.2734 35.293 87.1621 35.0703 86.9395 34.9062C86.7285 34.7422 86.418 34.584 86.0078 34.4316L84.707 33.957C84.0273 33.6992 83.5762 33.377 83.3535 32.9902C83.1309 32.5918 83.0195 32.1406 83.0195 31.6367C83.0195 30.8867 83.3008 30.2656 83.8633 29.7734C84.4258 29.2812 85.1758 29.0352 86.1133 29.0352ZM93.4434 26.6797V29.2109H96.0098V30.5645H93.4434V35.7148C93.4434 36.0781 93.5371 36.3652 93.7246 36.5762C93.9121 36.7871 94.1992 36.8926 94.5859 36.8926C94.9375 36.8926 95.2305 36.8516 95.4648 36.7695C95.6992 36.6758 95.9043 36.5762 96.0801 36.4707V37.6484C95.8457 37.8359 95.5938 37.9824 95.3242 38.0879C95.0664 38.2051 94.7148 38.2637 94.2695 38.2637C93.5195 38.2637 92.9512 38.041 92.5645 37.5957C92.1895 37.1387 92.002 36.5352 92.002 35.7852V30.5645H90.3145V30.1426C90.8887 29.8848 91.3691 29.4629 91.7559 28.877C92.1426 28.2793 92.4824 27.5469 92.7754 26.6797H93.4434ZM100.07 29.2109V30.9688C100.41 30.3828 100.82 29.9141 101.301 29.5625C101.781 29.2109 102.273 29.0352 102.777 29.0352C103.117 29.0352 103.422 29.0938 103.691 29.2109V30.8809C103.316 30.6582 102.941 30.5469 102.566 30.5469C101.969 30.5469 101.482 30.7578 101.107 31.1797C100.744 31.6016 100.398 32.1055 100.07 32.6914V38H98.6289V29.2109H100.07ZM112.727 29.2109V34.4141C112.727 35.1875 112.562 35.8555 112.234 36.418C111.906 36.9805 111.461 37.4141 110.898 37.7188C110.336 38.0234 109.703 38.1758 109 38.1758C108.297 38.1758 107.664 38.0234 107.102 37.7188C106.539 37.4141 106.094 36.9805 105.766 36.418C105.438 35.8555 105.273 35.1875 105.273 34.4141V29.2109H106.768V34.4141C106.768 35.1758 106.99 35.7617 107.436 36.1719C107.893 36.5703 108.414 36.7695 109 36.7695C109.586 36.7695 110.102 36.5703 110.547 36.1719C111.004 35.7617 111.232 35.1758 111.232 34.4141V29.2109H112.727ZM119.424 29.0352C120.068 29.0352 120.625 29.1406 121.094 29.3516C121.562 29.5508 121.885 29.7324 122.061 29.8965V31.3555C121.732 31.1094 121.357 30.8984 120.936 30.7227C120.514 30.5352 120.01 30.4414 119.424 30.4414C118.803 30.4414 118.258 30.5938 117.789 30.8984C117.32 31.1914 116.957 31.584 116.699 32.0762C116.453 32.5566 116.33 33.084 116.33 33.6582C116.33 34.2207 116.453 34.748 116.699 35.2402C116.957 35.7207 117.32 36.1133 117.789 36.418C118.258 36.7109 118.803 36.8574 119.424 36.8574C120.01 36.8574 120.514 36.7695 120.936 36.5938C121.357 36.4062 121.732 36.1895 122.061 35.9434V37.4023C121.885 37.5781 121.562 37.7656 121.094 37.9648C120.625 38.1641 120.068 38.2637 119.424 38.2637C118.533 38.2637 117.742 38.0527 117.051 37.6309C116.359 37.209 115.814 36.6523 115.416 35.9609C115.029 35.2578 114.836 34.4902 114.836 33.6582C114.836 32.8262 115.029 32.0586 115.416 31.3555C115.814 30.6523 116.359 30.0898 117.051 29.668C117.742 29.2461 118.533 29.0352 119.424 29.0352ZM126.859 26.6797V29.2109H129.426V30.5645H126.859V35.7148C126.859 36.0781 126.953 36.3652 127.141 36.5762C127.328 36.7871 127.615 36.8926 128.002 36.8926C128.354 36.8926 128.646 36.8516 128.881 36.7695C129.115 36.6758 129.32 36.5762 129.496 36.4707V37.6484C129.262 37.8359 129.01 37.9824 128.74 38.0879C128.482 38.2051 128.131 38.2637 127.686 38.2637C126.936 38.2637 126.367 38.041 125.98 37.5957C125.605 37.1387 125.418 36.5352 125.418 35.7852V30.5645H123.73V30.1426C124.305 29.8848 124.785 29.4629 125.172 28.877C125.559 28.2793 125.898 27.5469 126.191 26.6797H126.859ZM133.451 24.9922C133.791 24.9922 134.072 25.1152 134.295 25.3613C134.529 25.5957 134.646 25.8711 134.646 26.1875C134.646 26.4922 134.529 26.7676 134.295 27.0137C134.072 27.2598 133.791 27.3828 133.451 27.3828C133.111 27.3828 132.824 27.2598 132.59 27.0137C132.367 26.7676 132.256 26.4922 132.256 26.1875C132.256 25.8711 132.367 25.5957 132.59 25.3613C132.824 25.1152 133.111 24.9922 133.451 24.9922ZM134.348 29.2109V38H132.906V30.5645H131.518V29.2109H134.348ZM141.432 29.0352C142.322 29.0352 143.113 29.2461 143.805 29.668C144.496 30.0898 145.035 30.6523 145.422 31.3555C145.82 32.0586 146.02 32.8262 146.02 33.6582C146.02 34.4902 145.82 35.2578 145.422 35.9609C145.035 36.6523 144.496 37.209 143.805 37.6309C143.113 38.0527 142.322 38.2637 141.432 38.2637C140.541 38.2637 139.75 38.0527 139.059 37.6309C138.367 37.209 137.822 36.6523 137.424 35.9609C137.037 35.2578 136.844 34.4902 136.844 33.6582C136.844 32.8262 137.037 32.0586 137.424 31.3555C137.822 30.6523 138.367 30.0898 139.059 29.668C139.75 29.2461 140.541 29.0352 141.432 29.0352ZM141.432 30.4414C140.811 30.4414 140.266 30.5938 139.797 30.8984C139.328 31.1914 138.965 31.584 138.707 32.0762C138.461 32.5566 138.338 33.084 138.338 33.6582C138.338 34.2207 138.461 34.748 138.707 35.2402C138.965 35.7207 139.328 36.1133 139.797 36.418C140.266 36.7109 140.811 36.8574 141.432 36.8574C142.064 36.8574 142.609 36.7109 143.066 36.418C143.535 36.1133 143.893 35.7207 144.139 35.2402C144.396 34.748 144.525 34.2207 144.525 33.6582C144.525 33.084 144.396 32.5566 144.139 32.0762C143.893 31.584 143.535 31.1914 143.066 30.8984C142.609 30.5938 142.064 30.4414 141.432 30.4414ZM149.834 29.2109V30.5996C150.021 30.3652 150.262 30.1309 150.555 29.8965C150.848 29.6504 151.176 29.4453 151.539 29.2812C151.914 29.1172 152.301 29.0352 152.699 29.0352C153.297 29.0352 153.842 29.1699 154.334 29.4395C154.826 29.6973 155.219 30.0957 155.512 30.6348C155.805 31.1621 155.951 31.8301 155.951 32.6387V38H154.51L154.492 32.7793C154.492 32.0176 154.322 31.4375 153.982 31.0391C153.654 30.6406 153.145 30.4414 152.453 30.4414C151.984 30.4414 151.516 30.6172 151.047 30.9688C150.59 31.3086 150.186 31.707 149.834 32.1641V38H148.393V29.2109H149.834ZM161.295 29.0352C161.811 29.0352 162.291 29.1113 162.736 29.2637C163.182 29.4043 163.504 29.5508 163.703 29.7031V31.25C163.457 31.0625 163.123 30.8809 162.701 30.7051C162.279 30.5293 161.846 30.4414 161.4 30.4414C160.85 30.4414 160.434 30.5703 160.152 30.8281C159.883 31.0859 159.748 31.3555 159.748 31.6367C159.748 31.8594 159.824 32.0879 159.977 32.3223C160.141 32.5449 160.422 32.7266 160.82 32.8672L162.297 33.3945C162.871 33.5938 163.299 33.8809 163.58 34.2559C163.861 34.6309 164.002 35.0703 164.002 35.5742C164.002 36.0664 163.861 36.5176 163.58 36.9277C163.311 37.3379 162.93 37.666 162.438 37.9121C161.957 38.1465 161.4 38.2637 160.768 38.2637C160.428 38.2637 160.07 38.2168 159.695 38.123C159.332 38.041 159.004 37.9414 158.711 37.8242C158.418 37.6953 158.201 37.584 158.061 37.4902V35.9434C158.225 36.0605 158.453 36.1953 158.746 36.3477C159.051 36.4883 159.373 36.6113 159.713 36.7168C160.053 36.8105 160.369 36.8574 160.662 36.8574C161.213 36.8574 161.646 36.7344 161.963 36.4883C162.291 36.2422 162.455 35.9375 162.455 35.5742C162.455 35.293 162.344 35.0703 162.121 34.9062C161.91 34.7422 161.6 34.584 161.189 34.4316L159.889 33.957C159.209 33.6992 158.758 33.377 158.535 32.9902C158.312 32.5918 158.201 32.1406 158.201 31.6367C158.201 30.8867 158.482 30.2656 159.045 29.7734C159.607 29.2812 160.357 29.0352 161.295 29.0352Z" fill="black"/>
</svg>
