<svg width="227" height="67" viewBox="0 0 227 67" fill="none" xmlns="http://www.w3.org/2000/svg">
<path d="M226.5 34C226.5 38.3067 223.495 42.5166 217.797 46.4331C212.116 50.3386 203.862 53.8758 193.617 56.8544C173.134 62.8097 144.809 66.5 113.5 66.5C82.1913 66.5 53.8655 62.8097 33.383 56.8544C23.1384 53.8758 14.8842 50.3386 9.20263 46.4331C3.50526 42.5166 0.5 38.3067 0.5 34C0.5 29.6933 3.50526 25.4834 9.20263 21.5669C14.8842 17.6614 23.1384 14.1242 33.383 11.1456C53.8655 5.19031 82.1913 1.5 113.5 1.5C144.809 1.5 173.134 5.19031 193.617 11.1456C203.862 14.1242 212.116 17.6614 217.797 21.5669C223.495 25.4834 226.5 29.6933 226.5 34Z" fill="#DEDEDE" stroke="black"/>
<path d="M80.4971 26.2227V38H78.915V29.4746L75.2764 33.3594H74.8545L71.1279 29.4746V38H69.5459V26.2227H70.0381L75.0654 31.6191L80.0049 26.2227H80.4971ZM87.5459 29.0352C88.0498 29.0352 88.5596 29.1582 89.0752 29.4043C89.6025 29.6387 90.0537 29.9668 90.4287 30.3887V29.2109H91.8701V38H90.4287V36.5059C90.124 36.9746 89.708 37.3848 89.1807 37.7363C88.665 38.0879 88.0732 38.2637 87.4053 38.2637C86.6553 38.2637 85.9697 38.0762 85.3486 37.7012C84.7275 37.3145 84.2295 36.7812 83.8545 36.1016C83.4912 35.4219 83.3096 34.6367 83.3096 33.7461C83.3096 32.7734 83.4912 31.9355 83.8545 31.2324C84.2295 30.5293 84.7393 29.9902 85.3838 29.6152C86.0283 29.2285 86.749 29.0352 87.5459 29.0352ZM87.8096 30.4414C87.1768 30.4414 86.6377 30.5996 86.1924 30.916C85.7471 31.2324 85.4014 31.6426 85.1553 32.1465C84.9209 32.6387 84.8037 33.1719 84.8037 33.7461C84.8037 34.3086 84.9209 34.8301 85.1553 35.3105C85.3896 35.7793 85.7178 36.1543 86.1396 36.4355C86.5732 36.7168 87.0713 36.8574 87.6338 36.8574C88.1729 36.8574 88.6533 36.7168 89.0752 36.4355C89.4971 36.1543 89.8311 35.7676 90.0771 35.2754C90.3232 34.7715 90.4404 34.209 90.4287 33.5879L90.4111 31.9004C90.0479 31.4434 89.6553 31.0859 89.2334 30.8281C88.8232 30.5703 88.3486 30.4414 87.8096 30.4414ZM96.2646 24.9922C96.6045 24.9922 96.8857 25.1152 97.1084 25.3613C97.3428 25.5957 97.46 25.8711 97.46 26.1875C97.46 26.4922 97.3428 26.7676 97.1084 27.0137C96.8857 27.2598 96.6045 27.3828 96.2646 27.3828C95.9248 27.3828 95.6377 27.2598 95.4033 27.0137C95.1807 26.7676 95.0693 26.4922 95.0693 26.1875C95.0693 25.8711 95.1807 25.5957 95.4033 25.3613C95.6377 25.1152 95.9248 24.9922 96.2646 24.9922ZM97.1611 29.2109V38H95.7197V30.5645H94.3311V29.2109H97.1611ZM101.714 29.2109V30.5996C101.901 30.3652 102.142 30.1309 102.435 29.8965C102.728 29.6504 103.056 29.4453 103.419 29.2812C103.794 29.1172 104.181 29.0352 104.579 29.0352C105.177 29.0352 105.722 29.1699 106.214 29.4395C106.706 29.6973 107.099 30.0957 107.392 30.6348C107.685 31.1621 107.831 31.8301 107.831 32.6387V38H106.39L106.372 32.7793C106.372 32.0176 106.202 31.4375 105.862 31.0391C105.534 30.6406 105.024 30.4414 104.333 30.4414C103.864 30.4414 103.396 30.6172 102.927 30.9688C102.47 31.3086 102.065 31.707 101.714 32.1641V38H100.272V29.2109H101.714ZM127.22 26.2227V38H125.638V29.4746L121.999 33.3594H121.577L117.851 29.4746V38H116.269V26.2227H116.761L121.788 31.6191L126.728 26.2227H127.22ZM134.269 29.0352C135.171 29.0352 135.921 29.2227 136.519 29.5977C137.116 29.9727 137.562 30.4824 137.854 31.127C138.159 31.7715 138.312 32.498 138.312 33.3066V34.168H131.562C131.632 34.6602 131.802 35.1113 132.071 35.5215C132.341 35.9316 132.692 36.2598 133.126 36.5059C133.56 36.7402 134.058 36.8574 134.62 36.8574C135.253 36.8574 135.845 36.6992 136.396 36.3828C136.946 36.0547 137.409 35.6973 137.784 35.3105L137.767 36.875C137.603 37.0742 137.356 37.2852 137.028 37.5078C136.712 37.7188 136.343 37.8945 135.921 38.0352C135.511 38.1875 135.077 38.2637 134.62 38.2637C133.729 38.2637 132.938 38.0527 132.247 37.6309C131.556 37.209 131.011 36.6523 130.612 35.9609C130.226 35.2578 130.032 34.4902 130.032 33.6582C130.032 32.8262 130.214 32.0586 130.577 31.3555C130.94 30.6523 131.438 30.0898 132.071 29.668C132.716 29.2461 133.448 29.0352 134.269 29.0352ZM134.269 30.4414C133.542 30.4414 132.944 30.6875 132.476 31.1797C132.007 31.6602 131.714 32.2461 131.597 32.9375H136.888C136.829 32.3633 136.665 31.8945 136.396 31.5312C136.138 31.168 135.821 30.8984 135.446 30.7227C135.071 30.5352 134.679 30.4414 134.269 30.4414ZM142.126 29.2109V30.5996C142.313 30.3652 142.554 30.1309 142.847 29.8965C143.14 29.6504 143.468 29.4453 143.831 29.2812C144.206 29.1172 144.593 29.0352 144.991 29.0352C145.589 29.0352 146.134 29.1699 146.626 29.4395C147.118 29.6973 147.511 30.0957 147.804 30.6348C148.097 31.1621 148.243 31.8301 148.243 32.6387V38H146.802L146.784 32.7793C146.784 32.0176 146.614 31.4375 146.274 31.0391C145.946 30.6406 145.437 30.4414 144.745 30.4414C144.276 30.4414 143.808 30.6172 143.339 30.9688C142.882 31.3086 142.478 31.707 142.126 32.1641V38H140.685V29.2109H142.126ZM158.157 29.2109V34.4141C158.157 35.1875 157.993 35.8555 157.665 36.418C157.337 36.9805 156.892 37.4141 156.329 37.7188C155.767 38.0234 155.134 38.1758 154.431 38.1758C153.728 38.1758 153.095 38.0234 152.532 37.7188C151.97 37.4141 151.524 36.9805 151.196 36.418C150.868 35.8555 150.704 35.1875 150.704 34.4141V29.2109H152.198V34.4141C152.198 35.1758 152.421 35.7617 152.866 36.1719C153.323 36.5703 153.845 36.7695 154.431 36.7695C155.017 36.7695 155.532 36.5703 155.978 36.1719C156.435 35.7617 156.663 35.1758 156.663 34.4141V29.2109H158.157Z" fill="black"/>
</svg>
