<svg xmlns="http://www.w3.org/2000/svg" width="97" height="30" fill="none" viewBox="0 0 97 30"><path fill="#000" d="M12.9688 8.45312C13.4688 8.60938 13.8438 8.875 14.0938 9.25C14.3438 9.625 14.4688 10 14.4688 10.375C14.4688 10.9062 14.2812 11.3594 13.9062 11.7344C13.5312 12.0781 13.0781 12.25 12.5469 12.25C12.3906 12.25 12.2656 12.2344 12.1719 12.2031C11.5156 12.0156 10.9062 11.875 10.3438 11.7812C9.78125 11.6562 9.23438 11.5938 8.70312 11.5938C8.23438 11.5938 7.76562 11.6406 7.29688 11.7344C6.82812 11.8281 6.32812 11.9531 5.79688 12.1094L5.75 12.1562C6.21875 13.0625 6.85938 13.8594 7.67188 14.5469C8.48438 15.2344 9.32812 15.9375 10.2031 16.6562C11.0781 17.3438 11.9062 18.0781 12.6875 18.8594C13.5 19.6406 14.0938 20.5469 14.4688 21.5781C14.625 21.9844 14.7031 22.4062 14.7031 22.8438C14.7031 23.5 14.5781 24.1875 14.3281 24.9062C14.0781 25.625 13.7031 26.2812 13.2031 26.875C12.7344 27.4688 12.125 27.9531 11.375 28.3281C10.625 28.7344 9.73438 28.9375 8.70312 28.9375C7.54688 28.9375 6.48438 28.75 5.51562 28.375C4.57812 28.0312 3.75 27.5625 3.03125 26.9688L2.14062 26.4062L1.71875 25.9844C1.25 25.5781 1 25.0781 0.96875 24.4844V24.2031C1.0625 23.6094 1.26562 23.1875 1.57812 22.9375C1.92188 22.6562 2.32812 22.4844 2.79688 22.4219C3.42188 22.4219 4 22.75 4.53125 23.4062L5.65625 24.0156C6.09375 24.2656 6.57812 24.5156 7.10938 24.7656C7.67188 25.0156 8.21875 25.1406 8.75 25.1406C9.1875 25.1406 9.60938 25.0156 10.0156 24.7656L10.2969 24.5312C10.3906 24.25 10.4688 23.9688 10.5312 23.6875C10.625 23.4062 10.6719 23.1406 10.6719 22.8906C10.6719 22.4219 10.5625 22.0312 10.3438 21.7188C10.1562 21.375 9.89062 21.0781 9.54688 20.8281C9.23438 20.5469 8.89062 20.2969 8.51562 20.0781C8.14062 19.8281 7.76562 19.5625 7.39062 19.2812C7.04688 19.0312 6.5625 18.6406 5.9375 18.1094C5.34375 17.5469 4.73438 16.9219 4.10938 16.2344C3.48438 15.5469 2.9375 14.8281 2.46875 14.0781C2.03125 13.2969 1.8125 12.5781 1.8125 11.9219C1.8125 11.1406 2.04688 10.4844 2.51562 9.95312C2.98438 9.39062 3.5625 8.95312 4.25 8.64062C4.9375 8.29688 5.65625 8.0625 6.40625 7.9375C7.15625 7.78125 7.79688 7.70312 8.32812 7.70312C9.20312 7.70312 9.98438 7.76562 10.6719 7.89062C11.3906 8.01562 12.1562 8.20312 12.9688 8.45312ZM32.0938 23.8281C32.5 23.3594 32.8438 23.0625 33.125 22.9375C33.4375 22.7812 33.7656 22.7031 34.1094 22.7031C34.6406 22.7031 35.0312 22.9219 35.2812 23.3594C35.5625 23.7969 35.7031 24.2969 35.7031 24.8594C35.5469 25.4531 35.2812 25.9531 34.9062 26.3594C34.5625 26.7656 34.1406 27.0938 33.6406 27.3438C33.1406 27.5938 32.5938 27.7812 32 27.9062C31.4062 28 30.8125 28.0469 30.2188 28.0469C29.5938 28.0156 28.9688 27.9219 28.3438 27.7656C27.75 27.6094 27.1875 27.4062 26.6562 27.1562C26.125 26.875 25.6562 26.5625 25.25 26.2188C24.875 25.8438 24.6094 25.4219 24.4531 24.9531C23.7344 23.1719 23.25 21.3438 23 19.4688C22.75 17.5625 22.625 15.7188 22.625 13.9375V12.7656L19.7188 13.1875C19.0938 13.125 18.6094 12.9062 18.2656 12.5312C17.9531 12.1562 17.7969 11.7031 17.7969 11.1719C17.7969 10.8281 17.9219 10.4844 18.1719 10.1406C18.4219 9.76562 18.7969 9.5 19.2969 9.34375L22.7188 8.92188C22.7188 7.82812 22.75 6.75 22.8125 5.6875C22.9062 4.59375 22.9688 3.5 23 2.40625C23.3438 1.3125 23.9688 0.703125 24.875 0.578125C25.7812 0.578125 26.4375 1.15625 26.8438 2.3125C26.7812 3.5625 26.6875 5.125 26.5625 7L26.4688 8.3125C27.2812 8.1875 28.125 8.09375 29 8.03125C29.875 7.96875 30.7969 7.9375 31.7656 7.9375C32.8906 8.34375 33.4531 8.96875 33.4531 9.8125C33.3906 10.25 33.2188 10.6562 32.9375 11.0312C32.6562 11.375 32.2344 11.6094 31.6719 11.7344C29.8281 11.7344 28.0625 11.875 26.375 12.1562V13.375C26.375 14.375 26.4062 15.375 26.4688 16.375C26.5312 17.3438 26.6094 18.2812 26.7031 19.1875C26.8281 20.0625 26.9844 20.875 27.1719 21.625C27.3594 22.3438 27.5781 22.9375 27.8281 23.4062C28.2344 23.5938 28.7031 23.7812 29.2344 23.9688C29.7656 24.125 30.2812 24.2031 30.7812 24.2031C31.0625 24.2031 31.4375 24.125 31.9062 23.9688L32.0938 23.8281ZM51.4062 21.4375L51.0781 21.3906C50.6094 21.2969 50.1719 21.1406 49.7656 20.9219C49.3906 20.7031 49.0156 20.4844 48.6406 20.2656C48.2656 20.0469 47.9062 19.8594 47.5625 19.7031C47.2188 19.5156 46.875 19.4219 46.5312 19.4219C45.4375 19.5469 44.4844 19.9219 43.6719 20.5469C42.8906 21.1719 42.5 21.9219 42.5 22.7969C42.5 23.0469 42.5625 23.3125 42.6875 23.5938C42.8125 23.875 43.0156 24.2344 43.2969 24.6719C44.1094 25.1719 45 25.4219 45.9688 25.4219C47.0938 25.4219 48.0781 25.3125 48.9219 25.0938L49.5312 24.4844C49.8438 24.0781 50.2656 23.875 50.7969 23.875H51.0312C51.0625 23.625 51.0938 23.375 51.125 23.125C51.1562 22.875 51.2031 22.625 51.2656 22.375L51.4062 21.4375ZM52.1094 27.1094L51.0312 28.1406C50.625 28.5156 49.9688 28.7812 49.0625 28.9375C48.1875 29.125 47.2656 29.2188 46.2969 29.2188C44.9844 29.2188 43.8594 29.0781 42.9219 28.7969C42.0156 28.5156 41.2188 27.9688 40.5312 27.1562C39.4062 25.6562 38.8438 24.25 38.8438 22.9375C38.8438 22.0625 39.0156 21.2031 39.3594 20.3594C39.7344 19.4844 40.25 18.7031 40.9062 18.0156C41.5625 17.3281 42.3594 16.7656 43.2969 16.3281C44.2656 15.8906 45.3438 15.6719 46.5312 15.6719C47.0312 15.7344 47.5156 15.8438 47.9844 16C48.4531 16.1562 48.8906 16.3281 49.2969 16.5156C49.7031 16.7031 50.0625 16.8906 50.375 17.0781C50.7188 17.2344 50.9844 17.3594 51.1719 17.4531L50.8906 16.1875C50.7344 15.6875 50.5469 15.2031 50.3281 14.7344C50.1094 14.2344 49.8438 13.75 49.5312 13.2812L48.5938 12.4375C48.3438 12.375 48.1094 12.2969 47.8906 12.2031C47.6719 12.0781 47.3906 12.0156 47.0469 12.0156C46.1406 12.0781 45.25 12.2031 44.375 12.3906C43.5 12.5469 42.625 12.7812 41.75 13.0938C41.6562 13.125 41.5156 13.1406 41.3281 13.1406C40.6719 13.1406 40.1562 12.9531 39.7812 12.5781C39.4375 12.2031 39.2656 11.7969 39.2656 11.3594C39.2656 10.9844 39.3594 10.6562 39.5469 10.375C39.7344 10.0625 40.0938 9.75 40.625 9.4375C41.4375 9.1875 42.3281 8.92188 43.2969 8.64062C44.2969 8.32812 45.2969 8.17188 46.2969 8.17188C48.0156 8.17188 49.4375 8.51562 50.5625 9.20312C51.7188 9.89062 52.625 10.7969 53.2812 11.9219C53.9688 13.0156 54.4375 14.2344 54.6875 15.5781C54.9688 16.9219 55.1094 18.25 55.1094 19.5625C55.1094 20.3438 55.0781 21.1875 55.0156 22.0938C54.9844 22.9688 54.875 23.7969 54.6875 24.5781C54.5312 25.3281 54.2969 25.9531 53.9844 26.4531C53.6719 26.9531 53.25 27.2031 52.7188 27.2031C52.5938 27.2031 52.4688 27.2031 52.3438 27.2031C52.2188 27.1719 52.1406 27.1406 52.1094 27.1094ZM60.8281 26.6406C60.8281 25.7969 60.8438 24.9219 60.875 24.0156C60.9375 23.1094 61.0469 22.25 61.2031 21.4375L61.5312 17.9688L61.9531 15.4375C62.0469 15.0312 62.0938 14.6562 62.0938 14.3125C62.0938 13.9375 62.0156 13.5469 61.8594 13.1406C61.7344 12.7344 61.375 12.5312 60.7812 12.5312C60.5312 12.5312 60.2812 12.4688 60.0312 12.3438C59.8125 12.1875 59.6094 12.0156 59.4219 11.8281C59.2344 11.6094 59.0781 11.3906 58.9531 11.1719C58.8594 10.9531 58.8125 10.75 58.8125 10.5625C58.8125 10.1875 59 9.78125 59.375 9.34375C59.75 8.90625 60.2656 8.6875 60.9219 8.6875C62.5469 8.84375 63.7344 9.29688 64.4844 10.0469C65.2344 10.7969 65.6094 11.7188 65.6094 12.8125C66.5469 12.1562 67.6406 11.6719 68.8906 11.3594C70.1406 11.0156 71.625 10.7812 73.3438 10.6562C74.0312 10.6562 74.5625 10.8438 74.9375 11.2188C75.3125 11.5625 75.5 12 75.5 12.5312C75.5 13 75.3438 13.4219 75.0312 13.7969C74.7188 14.1406 74.2969 14.3594 73.7656 14.4531C72.3281 14.5469 71.1094 14.7031 70.1094 14.9219C69.1094 15.1406 68.2656 15.5 67.5781 16C66.8906 16.4688 66.3594 17.1094 65.9844 17.9219C65.6094 18.7344 65.3281 19.7812 65.1406 21.0625L65 21.7656V23.6875C64.9688 24.1562 64.9375 24.6406 64.9062 25.1406C64.9062 25.6094 64.875 26.0938 64.8125 26.5938L64.6719 27.4375L64.3906 28.1875C63.8906 28.7812 63.3125 29.0781 62.6562 29.0781C61.5312 29.0781 60.9219 28.4219 60.8281 27.1094V26.6406ZM92.4688 23.8281C92.875 23.3594 93.2188 23.0625 93.5 22.9375C93.8125 22.7812 94.1406 22.7031 94.4844 22.7031C95.0156 22.7031 95.4062 22.9219 95.6562 23.3594C95.9375 23.7969 96.0781 24.2969 96.0781 24.8594C95.9219 25.4531 95.6562 25.9531 95.2812 26.3594C94.9375 26.7656 94.5156 27.0938 94.0156 27.3438C93.5156 27.5938 92.9688 27.7812 92.375 27.9062C91.7812 28 91.1875 28.0469 90.5938 28.0469C89.9688 28.0156 89.3438 27.9219 88.7188 27.7656C88.125 27.6094 87.5625 27.4062 87.0312 27.1562C86.5 26.875 86.0312 26.5625 85.625 26.2188C85.25 25.8438 84.9844 25.4219 84.8281 24.9531C84.1094 23.1719 83.625 21.3438 83.375 19.4688C83.125 17.5625 83 15.7188 83 13.9375V12.7656L80.0938 13.1875C79.4688 13.125 78.9844 12.9062 78.6406 12.5312C78.3281 12.1562 78.1719 11.7031 78.1719 11.1719C78.1719 10.8281 78.2969 10.4844 78.5469 10.1406C78.7969 9.76562 79.1719 9.5 79.6719 9.34375L83.0938 8.92188C83.0938 7.82812 83.125 6.75 83.1875 5.6875C83.2812 4.59375 83.3438 3.5 83.375 2.40625C83.7188 1.3125 84.3438 0.703125 85.25 0.578125C86.1562 0.578125 86.8125 1.15625 87.2188 2.3125C87.1562 3.5625 87.0625 5.125 86.9375 7L86.8438 8.3125C87.6562 8.1875 88.5 8.09375 89.375 8.03125C90.25 7.96875 91.1719 7.9375 92.1406 7.9375C93.2656 8.34375 93.8281 8.96875 93.8281 9.8125C93.7656 10.25 93.5938 10.6562 93.3125 11.0312C93.0312 11.375 92.6094 11.6094 92.0469 11.7344C90.2031 11.7344 88.4375 11.875 86.75 12.1562V13.375C86.75 14.375 86.7812 15.375 86.8438 16.375C86.9062 17.3438 86.9844 18.2812 87.0781 19.1875C87.2031 20.0625 87.3594 20.875 87.5469 21.625C87.7344 22.3438 87.9531 22.9375 88.2031 23.4062C88.6094 23.5938 89.0781 23.7812 89.6094 23.9688C90.1406 24.125 90.6562 24.2031 91.1562 24.2031C91.4375 24.2031 91.8125 24.125 92.2812 23.9688L92.4688 23.8281Z"/></svg>